PathFileType	4	(X/Y/Z)	s02c0103.trc
DataRate	CameraRate	NumFrames	NumMarkers	Units	OrigDataRate	OrigDataStartFrame	OrigNumFrames
200	200	6	50	mm	200	1000	2000
Frame#	Time	racr			lacr			c7			jug			rlel			rdr			llel			ldr			s2			lic			ric			lasi			rasi			rpsi			lpsi			rgt			lgt			rth1			rth2			rth3			rth4			rlfc			rmfc			rsh1			rsh2			rsh3			rsh4			rlmal			rmmal			rtoe			rmt5			rmt1			lth1			lth2			lth4			lth3			llfc			lmfc			lsh1			lsh2			lsh3			lsh4			llmal			lmmal			lcal			ltoe			lmt5			SBIKE			LBIKE			RBIKE			
		X1	Y1	Z1	X2	Y2	Z2	X3	Y3	Z3	X4	Y4	Z4	X5	Y5	Z5	X6	Y6	Z6	X7	Y7	Z7	X8	Y8	Z8	X9	Y9	Z9	X10	Y10	Z10	X11	Y11	Z11	X12	Y12	Z12	X13	Y13	Z13	X14	Y14	Z14	X15	Y15	Z15	X16	Y16	Z16	X17	Y17	Z17	X18	Y18	Z18	X19	Y19	Z19	X20	Y20	Z20	X21	Y21	Z21	X22	Y22	Z22	X23	Y23	Z23	X24	Y24	Z24	X25	Y25	Z25	X26	Y26	Z26	X27	Y27	Z27	X28	Y28	Z28	X29	Y29	Z29	X30	Y30	Z30	X31	Y31	Z31	X32	Y32	Z32	X33	Y33	Z33	X34	Y34	Z34	X35	Y35	Z35	X36	Y36	Z36	X37	Y37	Z37	X38	Y38	Z38	X39	Y39	Z39	X40	Y40	Z40	X41	Y41	Z41	X42	Y42	Z42	X43	Y43	Z43	X44	Y44	Z44	X45	Y45	Z45	X46	Y46	Z46	X47	Y47	Z47	X48	Y48	Z48	X49	Y49	Z49	X50	Y50	Z50	
1000	5.0000	555.718470	1240.338585	-172.562682	535.555624	1257.769688	-498.157543	526.817118	1284.250726	-341.538970	468.615712	1153.756568	-341.275371	568.722124	995.292738	-55.700716	711.077051	842.767028	-127.101925	523.292369	989.292294	-598.607766	696.653246	853.123618	-520.852350	9.341710	1124.838424	-294.622942	97.848936	1131.177151	-430.491040	143.311119	1102.434279	-162.904902	160.832461	1100.567589	-428.974865	190.636897	1074.922069	-197.374994	25.122869	1151.628741	-250.406589	24.648150	1166.576702	-334.558375	100.930657	1015.697593	-136.031248	85.051953	1062.540074	-492.971746	173.790639	941.060113	-121.965658	232.697871	875.241671	-125.637419	255.267222	794.735191	-105.810762	259.284151	887.989850	-149.517581	295.227044	663.359227	-144.416584	285.214147	644.969033	-249.481725	282.274763	558.307448	-122.096171	291.267373	470.939259	-137.125296	258.484233	391.036964	-133.055596	305.326243	471.223411	-174.019889	232.905071	276.408053	-139.405752	242.194018	294.233234	-217.977580	397.464991	118.629900	-194.373291	298.127114	157.239238	-129.024305	323.098930	161.222931	-235.819162	217.191561	1036.525757	-509.134290	302.204674	1034.224875	-503.820153	311.643437	1063.498758	-483.319349	377.907774	987.950674	-512.881460	474.426998	949.923882	-500.720288	484.496524	919.272143	-387.729910	441.370970	857.494951	-512.004836	407.319880	779.629547	-495.285538	336.510221	723.840193	-498.303308	425.621687	769.339059	-459.609280	255.097928	642.013215	-485.619659	274.635997	636.227751	-407.259377	177.695723	624.063084	-444.356301	421.038093	471.811550	-440.118389	319.904615	503.116966	-503.589418	-128.804643	870.054787	-312.690232	32.776753	83.055818	-515.014498	32.771658	82.339395	-115.409988	
1001	5.0050	556.068353	1239.521993	-173.897858	534.231655	1258.313483	-498.482330	526.115508	1284.241209	-342.251243	468.180958	1153.632180	-342.351493	569.277240	995.371581	-55.234183	711.170573	842.575830	-126.861424	521.521563	989.614218	-597.675447	695.961092	853.930057	-520.728628	9.395989	1125.149769	-293.944382	98.322289	1130.655304	-431.231406	142.483105	1102.675780	-162.172716	160.376150	1102.543867	-429.021397	189.451005	1075.540425	-196.891719	24.296606	1152.743621	-249.189165	23.950557	1167.788982	-333.174595	99.543963	1015.833965	-135.211276	84.573128	1063.833568	-491.695428	172.324071	941.155613	-121.339034	231.757262	875.863309	-124.596570	254.677547	795.322624	-105.024499	258.428464	888.788983	-148.266652	296.025779	664.295916	-144.159994	286.132863	646.494748	-249.423605	281.467929	559.539341	-122.261514	288.335830	471.996903	-137.555631	253.635012	392.705464	-133.529465	302.250275	471.924591	-174.497669	225.118457	279.000124	-139.678352	234.661458	296.584476	-218.363789	386.593193	118.184083	-194.198654	287.850042	158.539146	-129.262326	313.080934	161.477700	-235.882853	216.471054	1037.342415	-508.965606	301.384430	1034.884690	-504.152775	310.984158	1064.537902	-484.036909	377.050269	988.560774	-512.882271	474.373175	952.018767	-500.828055	484.888610	921.585780	-387.998106	443.031109	859.250544	-512.391727	410.857270	780.494190	-496.184998	341.228098	723.155245	-499.115275	429.468221	770.430617	-460.608102	261.200754	638.591996	-486.418206	280.938353	633.661431	-408.451597	184.313344	618.959292	-445.792750	431.467032	473.853833	-440.424118	329.459336	501.918374	-504.293424	-128.817829	870.033964	-312.670341	32.788902	83.028018	-515.044882	32.690135	82.207799	-115.398236	
1002	5.0100	556.322223	1238.552634	-175.015968	532.743639	1258.788572	-498.790766	525.348147	1284.077697	-342.971057	467.542586	1153.416056	-343.378611	569.671649	995.321160	-54.801474	711.201990	842.347251	-126.659035	519.593255	989.703950	-596.779641	695.457544	854.643929	-521.007666	7.627764	1125.941669	-292.683035	98.817566	1130.113827	-431.997094	141.394626	1103.057911	-161.300276	160.034982	1104.855844	-430.493059	188.063495	1075.803024	-196.078000	23.294554	1153.744545	-248.146817	23.955483	1169.220565	-332.510240	97.827745	1016.051827	-133.754423	84.200399	1064.912904	-490.564388	170.984796	941.368509	-120.751242	231.124232	876.750361	-123.517072	254.610977	796.344890	-104.347970	257.899468	890.091770	-146.995637	297.553414	665.582290	-143.594258	287.838581	648.271158	-249.264938	281.284056	560.972490	-122.480193	285.685724	473.298917	-138.001490	249.092373	394.939274	-133.863254	299.609609	472.937513	-174.866664	217.329739	282.218693	-140.107907	227.738850	299.223279	-218.900913	375.784541	118.124584	-193.873392	277.653266	160.536650	-129.408418	303.140845	162.768030	-235.928208	215.736665	1037.947980	-509.136353	300.629698	1034.934803	-504.564788	310.498680	1064.836873	-484.859155	376.067075	988.293854	-513.128462	474.176586	953.142559	-500.945379	485.269988	922.556145	-388.470160	444.260472	859.758841	-512.979209	413.855981	780.193540	-497.316196	345.411227	721.483787	-500.157797	432.809723	770.276061	-461.797902	267.013363	634.184744	-487.231878	286.950995	630.093498	-409.632807	190.244898	612.507946	-446.532539	441.772720	475.637413	-440.601102	338.889991	499.971780	-505.023720	-128.844638	869.975629	-312.696699	32.792631	83.025315	-515.039885	32.696282	82.237248	-115.396571	
1003	5.0150	556.491342	1237.472042	-176.151073	531.162475	1259.144155	-499.085226	524.496788	1283.792596	-343.551796	466.824858	1153.077464	-344.283685	569.818027	995.097248	-54.511945	711.208929	842.093280	-126.484783	517.547127	989.526958	-595.897931	694.695853	855.271290	-521.058757	5.646151	1126.597498	-291.710829	99.334996	1129.552597	-432.788196	140.081551	1103.570662	-160.497192	159.686644	1106.683688	-431.545603	186.619165	1075.987242	-194.944242	22.227694	1154.804000	-247.433189	23.198660	1170.131574	-331.699710	95.949489	1016.583189	-132.176122	83.909811	1065.840027	-489.488224	169.795747	941.815873	-120.138986	230.796058	877.945923	-122.496104	255.027708	797.611671	-103.796278	257.598820	891.639609	-145.725083	299.586030	667.313220	-143.191943	290.169904	650.385823	-249.134373	281.597346	562.692451	-122.669975	283.538206	475.017792	-138.375109	244.915161	397.596433	-134.293783	297.304509	474.386463	-175.344723	209.684786	285.987756	-140.650775	220.585773	302.816905	-219.484705	365.048227	119.024341	-193.440158	267.561712	163.198578	-129.661608	293.209293	164.447852	-236.152086	215.008368	1038.176286	-509.202227	299.935081	1034.420747	-505.028068	310.039232	1064.392492	-485.744935	374.946312	987.087313	-513.407816	473.834469	952.694434	-501.253405	485.340838	922.301952	-389.013127	444.969035	858.944536	-513.842869	416.316461	778.578820	-498.466363	348.954839	718.607324	-501.310763	435.699813	768.821933	-463.261607	272.507093	628.763256	-488.089110	292.364255	625.497247	-410.841814	195.608211	604.814912	-447.047446	451.641692	476.917826	-441.133726	348.014625	497.311261	-505.704783	-128.888142	869.930391	-312.781836	32.773537	82.924248	-515.080099	32.670423	82.239068	-115.408271	
1004	5.0200	556.597077	1236.266062	-177.107040	529.539518	1259.217242	-499.256819	523.585784	1283.398906	-344.098376	465.899348	1152.695671	-345.103426	569.978807	994.605784	-54.519994	711.121577	841.818385	-126.316192	515.581044	989.012069	-595.093689	694.152769	855.758207	-521.466641	3.478465	1127.470065	-291.066823	99.874807	1128.971246	-433.604894	138.619866	1104.193506	-159.653771	159.337880	1108.055599	-432.220872	185.205011	1076.393711	-193.772952	22.485205	1155.409887	-247.860552	22.397320	1171.278450	-330.844154	94.375365	1016.768587	-131.431359	83.722392	1066.616245	-488.317125	168.812538	942.566080	-119.325542	230.703826	879.345865	-121.869474	255.835141	799.219860	-103.351995	257.573538	893.581500	-144.572284	302.147535	669.398544	-142.793936	293.232154	652.682030	-249.189984	282.280973	564.835057	-122.883523	281.640580	477.036008	-138.878615	241.021535	400.891652	-134.738502	295.357192	476.170314	-175.871552	202.137922	290.364142	-141.344653	213.946178	306.747676	-220.279704	354.535918	120.591358	-193.046926	257.635505	166.466908	-130.003532	283.766761	166.794541	-236.199944	214.313223	1037.603378	-509.233895	299.158303	1033.233638	-505.430640	309.646091	1063.316649	-486.434207	373.696758	985.180564	-513.765506	472.779857	950.367009	-502.116826	484.938912	920.719560	-389.725458	445.146552	856.570584	-514.554611	418.283472	775.526346	-499.750452	352.041299	714.329786	-502.444345	438.092967	766.050750	-464.778738	277.692561	622.397684	-488.924563	297.456393	619.623701	-411.919383	200.253711	595.967367	-448.111031	461.187864	477.653155	-441.426323	356.859005	493.805493	-506.641290	-128.961674	869.871017	-312.878124	32.750120	82.836038	-515.110559	32.675678	82.228753	-115.411836	
1005	5.0250	556.617236	1234.955405	-177.930276	527.925471	1259.178457	-499.364824	522.635795	1283.046428	-344.566722	464.701168	1152.459593	-345.885520	569.970475	993.899754	-54.629028	711.000413	841.507238	-126.140220	513.365115	988.506241	-594.097749	693.223736	856.155930	-521.646321	1.556326	1128.458296	-290.667206	100.437218	1128.369651	-434.447341	136.994586	1104.630265	-158.858047	158.995455	1109.000141	-432.560652	184.020695	1077.131813	-192.535490	21.296874	1156.437339	-247.540676	21.822089	1172.177187	-330.725956	93.142865	1016.650763	-131.664972	83.673531	1067.244751	-487.272667	168.073972	943.193531	-118.953960	230.958018	881.013960	-121.107225	257.169104	801.047752	-102.889375	257.812537	895.711703	-143.585137	305.114979	671.745316	-142.412907	296.705528	655.442057	-249.139100	283.314060	567.232620	-123.116458	279.925496	479.556830	-139.572999	237.383996	404.589810	-135.282786	293.743055	478.308616	-176.270351	194.757440	295.333579	-142.111747	207.413435	311.368085	-221.056941	344.182855	122.580785	-192.527894	247.771143	170.446628	-130.396839	274.184340	169.793763	-236.489996	213.570759	1036.792734	-508.979451	298.406800	1031.396435	-505.659437	309.302023	1061.528972	-486.946506	372.368059	982.532706	-514.013605	471.699772	947.145281	-502.960951	484.524205	917.719226	-390.700125	445.048363	852.795979	-515.652708	419.908539	771.206733	-501.012270	354.827617	708.702219	-503.527953	440.034617	761.988193	-466.196982	282.472299	615.126052	-489.689220	301.943189	613.148208	-412.684491	205.125817	586.208923	-449.196662	470.523063	478.175151	-441.898909	365.452958	489.410543	-507.594299	-128.998336	869.812047	-313.033001	32.738148	82.742086	-515.150347	32.652397	82.168957	-115.376523	
